<svg id="Layer_1" data-name="Layer 1" xmlns="http://www.w3.org/2000/svg" viewBox="0 0 23.16 29.57"><defs><style>.cls-1,.cls-2,.cls-3{fill:#fff;}.cls-2,.cls-3{stroke:#000;stroke-miterlimit:10;}.cls-2{stroke-width:0.25px;}.cls-3{stroke-width:0.1px;}.cls-4{fill-opacity:0.2;}</style></defs><path d="M369.7,781.06H361v8.27h8.66Z" transform="translate(-353.55 -774.77)"/><path d="M358,776.75a1.8,1.8,0,0,0-.57,1.8,5,5,0,0,0,.61,1.09,3,3,0,0,1,.49.85,17.25,17.25,0,0,1-1,2,15.34,15.34,0,0,0-1,2.05,2,2,0,0,0,.22.61c.2.42.19.48-.19,1.26s-.39.86-.22,1.18c.38.75.3,1-1.37,3.89-1.26,2.19-1.47,2.78-1.38,3.89a8.91,8.91,0,0,0,1.35,4,10.26,10.26,0,0,0,6.28,4.23,15.9,15.9,0,0,1,2.5.46,4.27,4.27,0,0,0,1.47.29,5.72,5.72,0,0,0,1.53-.34,10.39,10.39,0,0,0,1.73-.61,9.09,9.09,0,0,0,1.35-.78,14.59,14.59,0,0,0,2.43-2.15c2-2.05,4.31-3.91,4.48-5.12a3.57,3.57,0,0,0,0-.8,4.1,4.1,0,0,0-.4-1.11c-.25-.56-.84-1.65-1.3-2.41-1.34-2.27-1.4-2.42-1.07-3.35.13-.41.11-.54-.25-1.25s-.38-.81-.15-1.32.3-.51-1.11-3.1c-.76-1.4-.81-1.53-.62-1.8.92-1.3,1-1.58,1-2.26a1.74,1.74,0,0,0-.24-.87,1.72,1.72,0,0,0-2.7-.08c-.84.83-.84.83-2.2.37a7.43,7.43,0,0,0-4.9-.06,6.9,6.9,0,0,1-1.32.38,2.5,2.5,0,0,1-.95-.65c-.61-.58-.76-.65-1.36-.65A1.42,1.42,0,0,0,358,776.75Zm7.79,5.31a8.82,8.82,0,0,1,1,1.53c.4.89.42.95.42,2.95,0,2.72,0,2.72-1.9,2.78-1.54.06-2.14-.1-2.26-.62a23.37,23.37,0,0,1,0-2.46l0-2.15.53-.93c.54-1,1.2-1.73,1.48-1.73A2.52,2.52,0,0,1,365.81,782.06Zm-3,0c.27.27.27.34,0,.75a.69.69,0,0,1-.65.31c-.46,0-.62-.18-.62-.72S362.42,781.67,362.81,782.09Zm5.66,0c.29.23.3.32.15.65a.7.7,0,0,1-1.21.12.55.55,0,0,1,0-.81c.29-.3.64-.29,1,0Zm-1,11.09c.22.27.26.58.26,1.73,0,1.51-.09,1.74-.69,1.74a2.94,2.94,0,0,0-2.34,1.8,5,5,0,0,0-.17,2.84l.11.55h-.75c-.65,0-.79-.06-1-.38s-.29-.56-.29-4c0-3.85.08-4.39.64-4.55a16.7,16.7,0,0,1,2.12,0C367.18,792.88,367.28,792.89,367.52,793.22Z" transform="translate(-353.55 -774.77)"/><path d="M364.16,785c-.91.39.19,1.88,1.22,1.67s1.38-1.47.64-1.69A4,4,0,0,0,364.16,785Z" transform="translate(-353.55 -774.77)"/><path d="M363.3,793.81a.25.25,0,0,0,.27.29c.18,0,.27-.1.27-.29s-.09-.29-.27-.29S363.3,793.62,363.3,793.81Z" transform="translate(-353.55 -774.77)"/><path d="M368.84,791.57h-9.07v10.75h9.07Z" transform="translate(-353.55 -774.77)"/><path class="cls-1" d="M371.42,789.48H358.31a.75.75,0,0,0-.73.77v7.12a.75.75,0,0,0,.73.77h13.11a.74.74,0,0,0,.72-.77v-7.12A.74.74,0,0,0,371.42,789.48Z" transform="translate(-353.55 -774.77)"/><path d="M363.3,793.81a.25.25,0,0,0,.27.29c.18,0,.27-.1.27-.29s-.09-.29-.27-.29S363.3,793.62,363.3,793.81Z" transform="translate(-353.55 -774.77)"/><path class="cls-2" d="M364.47,775a4.56,4.56,0,0,0-1.75.72,2.27,2.27,0,0,0-1,1.41,1.84,1.84,0,0,0,0,.54s.05,0,.17,0a7.2,7.2,0,0,1,1.07-.1,19.36,19.36,0,0,1,2.21.25c.66.11,1.26.19,1.62.23a3,3,0,0,0,.69,0,2.85,2.85,0,0,0,.63-.09c.29-.1.38-.3.37-.78a1.62,1.62,0,0,0-.25-.89,3.15,3.15,0,0,0-2.38-1.29l-.43,0A7.77,7.77,0,0,0,364.47,775Zm.62.17.14.05c.06,0,.07.06.07.11s-.12.18-.33.2a.36.36,0,0,1-.33-.08c-.05,0-.05-.06,0-.13s.27-.18.48-.15Z" transform="translate(-353.55 -774.77)"/><path class="cls-2" d="M362.08,777.63a3.5,3.5,0,0,0-.85.3l-.43.21,1.11.47c.2.09,1.23.39,1.62.49a5.1,5.1,0,0,0,1.67.19,1.83,1.83,0,0,0,1.6-1,1.42,1.42,0,0,0,.08-.18l-.33,0c-.39,0-.69-.08-1.42-.19a17,17,0,0,0-2.08-.25A7.1,7.1,0,0,0,362.08,777.63Z" transform="translate(-353.55 -774.77)"/><path class="cls-1" d="M365.62,785.66c.16,1.06-.36,2.29-.76,2.29s-.85-1.24-.8-2.29a6.07,6.07,0,0,1,.37-1.58c.27-.9.39-.91.42-.91s.15.34.27.86C365.36,785.08,365.54,785.16,365.62,785.66Z" transform="translate(-353.55 -774.77)"/><path class="cls-1" d="M364.86,783.2s-.74,0-.81.58.05.64-.26,1.12-1.1,1.41-.8,2.27c0-.1,0-.21.05-.31,0-.33.09-.65.14-1a1,1,0,0,0-.38.32,1.3,1.3,0,0,0-.12,1.07s.08.29.15.34.1.49,0,.43.07.79.82.36,1-.49,1.18-.43V783.2Z" transform="translate(-353.55 -774.77)"/><path class="cls-1" d="M364.86,783.2s.74,0,.81.58-.05.64.26,1.12,1.11,1.41.8,2.27c0-.1,0-.21,0-.31l-.15-1a1,1,0,0,1,.38.32,1.3,1.3,0,0,1,.12,1.07s-.07.29-.15.34-.1.49,0,.43-.06.79-.82.36-1-.49-1.18-.43V783.2Z" transform="translate(-353.55 -774.77)"/><path d="M364.85,787.51s-.58.13-.87-.7c0,0,.47.08.49-.34s-.43-.06-.43-.06-.35.16-.39-.18.13-.79,1.21-.77Z" transform="translate(-353.55 -774.77)"/><path d="M364.85,787.51s.59.13.87-.7c0,0-.47.08-.48-.34s.43-.06.43-.06.34.16.39-.18-.13-.79-1.21-.77Z" transform="translate(-353.55 -774.77)"/><path class="cls-1" d="M364.85,783.17s-.74,0-.81.59,0,.63-.26,1.11-1.11,1.41-.8,2.27c0-.1,0-.2,0-.31l.15-1a1,1,0,0,0-.38.33,1.28,1.28,0,0,0-.12,1.06s.08.3.15.34.1.5,0,.43.07.79.82.37,1-.5,1.18-.43v-4.79Z" transform="translate(-353.55 -774.77)"/><path class="cls-1" d="M364.85,783.17s.74,0,.81.59-.05.63.26,1.11,1.11,1.41.8,2.27c0-.1,0-.2,0-.31l-.15-1a1,1,0,0,1,.38.33,1.28,1.28,0,0,1,.12,1.06s-.08.3-.15.34-.1.49,0,.43-.06.79-.82.37-1-.5-1.18-.43v-4.79Z" transform="translate(-353.55 -774.77)"/><path d="M364.84,787.49s-.58.12-.87-.71c0,0,.47.09.49-.34s-.43-.05-.43-.05-.35.16-.39-.19.13-.79,1.21-.77Z" transform="translate(-353.55 -774.77)"/><path d="M364.84,787.49s.59.12.87-.71c0,0-.47.09-.48-.34s.43-.05.43-.05.34.16.39-.19-.13-.79-1.21-.77Z" transform="translate(-353.55 -774.77)"/><path class="cls-1" d="M361.92,783.09s.11-.4.54-.1a1.2,1.2,0,0,0,.76.18S362.63,784.05,361.92,783.09Z" transform="translate(-353.55 -774.77)"/><path class="cls-1" d="M367.81,783.15s-.11-.41-.53-.1a1.2,1.2,0,0,1-.76.18S367.11,784.11,367.81,783.15Z" transform="translate(-353.55 -774.77)"/><path class="cls-3" d="M361.63,781.91a7.37,7.37,0,0,0-1.13.13l-.15.09a.56.56,0,0,0-.1.15,2.34,2.34,0,0,0,0,.53,1.4,1.4,0,0,0,.09.17.61.61,0,0,1,.1.29c.14.94.21,1.14.48,1.33a2,2,0,0,0,1.12.32,2.65,2.65,0,0,0,1.78-.38,2.72,2.72,0,0,0,.66-1.24.92.92,0,0,1,.09-.23A.53.53,0,0,1,365,783c.11,0,.15.08.2.3a2.15,2.15,0,0,0,.86,1.42,3.17,3.17,0,0,0,1.55.28,2.09,2.09,0,0,0,1.12-.29c.27-.19.34-.38.51-1.32a.61.61,0,0,1,.11-.29.57.57,0,0,0,.11-.42c0-.25,0-.32-.11-.42s-.14-.1-.43-.16a9.56,9.56,0,0,0-2.19-.1,2.73,2.73,0,0,0-1.12.23c-.14.06-.32.14-.42.17-.34.12-.51.09-1.09-.19A2.46,2.46,0,0,0,363,782,12.27,12.27,0,0,0,361.63,781.91Zm1.13.38a2.31,2.31,0,0,1,1.3.37c.17.2,0,.85-.26,1.33a1.53,1.53,0,0,1-1.28.65,2.06,2.06,0,0,1-1.37-.33,1.61,1.61,0,0,1-.16-1.8,1.07,1.07,0,0,1,.8-.26l1,0Zm5.48.1a.66.66,0,0,1,.54.39,1.68,1.68,0,0,1-.31,1.65,2,2,0,0,1-1.37.28,2,2,0,0,1-.75-.21,1.27,1.27,0,0,1-.33-.24,2,2,0,0,1-.47-1.43c0-.17.2-.29.56-.37a6.67,6.67,0,0,1,2.12-.07Zm-7.63.11s0,0,0,0-.14.06-.14,0v-.08l.08,0,.1,0Zm8.64.13c0,.09,0,.09-.14,0l-.07,0,.1,0,.11,0v.08Z" transform="translate(-353.55 -774.77)"/><path class="cls-1" d="M371.42,789.5H358.26a.76.76,0,0,0-.73.79v7.25a.76.76,0,0,0,.73.79h13.16a.76.76,0,0,0,.73-.79v-7.25A.76.76,0,0,0,371.42,789.5Z" transform="translate(-353.55 -774.77)"/><path class="cls-4" d="M364.5,790.48a1.35,1.35,0,0,0-.32.09,1.21,1.21,0,0,0-.67.86.26.26,0,0,1,0,.13l-.06,0a.79.79,0,0,0-.3.11.83.83,0,0,0-.38.71.82.82,0,0,0,.6.81,3.2,3.2,0,0,0,.71,0h.63v.07c0,.06,0,.07,0,.1l-.09.1,0,.05h-2.18v.69H362c-.25,0-.34,0-.35,0a10.77,10.77,0,0,0,0,1.5,9.92,9.92,0,0,0,0,1.5,3.82,3.82,0,0,0,.85,0h.84s0,0,0-1.51,0-1.44,0-1.48l0,0H363a1.81,1.81,0,0,1-.35,0s0,0,0-.18v-.18h1.86l.09.09.09.1v.16h-.33c-.31,0-.34,0-.37,0a56.26,56.26,0,0,0,0,3s.08,0,.84,0h.84a.1.1,0,0,0,.05-.07s0-.5,0-1.47a9.81,9.81,0,0,0,0-1.46s0,0-.36,0H365v-.09c0-.09,0-.09,0-.12l.08-.09,0-.06h.94a5.26,5.26,0,0,1,.95,0,.58.58,0,0,1,0,.18v.17h-.34c-.3,0-.33,0-.36,0l0,0v1.47a8.3,8.3,0,0,0,0,1.5l0,0H368l0,0a6.87,6.87,0,0,0,0-1.5,6.5,6.5,0,0,0,0-1.51l0,0h-.67v-.69h-2.17l-.06-.08-.09-.09s0,0,0-.07a.15.15,0,0,1,0-.08,3.44,3.44,0,0,1,.59,0c.65,0,.67,0,.87-.11a1,1,0,0,0,.43-.53,1,1,0,0,0-.43-1.17.89.89,0,0,0-.6-.09c-.08,0-.13,0-.14,0s0-.06-.05-.12a1.14,1.14,0,0,0-.77-.71A1.46,1.46,0,0,0,364.5,790.48Zm-1.4,4.07a.61.61,0,0,1,0,.22.73.73,0,0,1,0,.21s0,0-.62,0a3.9,3.9,0,0,1-.63,0,.88.88,0,0,1,0-.23c0-.19,0-.21,0-.23h1.22Zm2.35,0s0,.06,0,.23a.82.82,0,0,1,0,.22s-1.23,0-1.25,0a.61.61,0,0,1,0-.22.6.6,0,0,1,0-.23s.09,0,.62,0S365.43,794.52,365.45,794.54Zm2.35,0s0,.06,0,.23a.82.82,0,0,1,0,.22,3.9,3.9,0,0,1-.63,0c-.59,0-.61,0-.62,0a.73.73,0,0,1,0-.21c0-.15,0-.2,0-.22v0h.6C367.71,794.52,367.79,794.52,367.8,794.54Zm-4.71.77s0,0,0,.23,0,.2,0,.21a5,5,0,0,1-.62,0c-.52,0-.59,0-.61,0s0-.06,0-.23,0-.2,0-.22.09,0,.61,0S363.07,795.28,363.09,795.31Zm2.35,0s0,0,0,.22,0,.21,0,.23-.09,0-.62,0-.59,0-.62,0,0,0,0-.22,0-.2,0-.22.1,0,.61,0S365.42,795.28,365.44,795.3Zm2.36,0s0,0,0,.23a.82.82,0,0,1,0,.22,3.82,3.82,0,0,1-.62,0h-.61v0s0-.07,0-.22,0-.19,0-.21,0,0,.61,0A2.42,2.42,0,0,1,367.8,795.3Zm-5.26,1a.24.24,0,0,1,.08.06c0,.05,0,.06,0,.14s0,.1-.05.15-.05,0-.13,0-.09,0-.14,0a.21.21,0,0,1,0-.27.34.34,0,0,1,.16-.1Zm2.38,0a.21.21,0,0,1,0,.37.13.13,0,0,1-.11,0,.11.11,0,0,1-.11,0,.2.2,0,0,1,0-.27.23.23,0,0,1,.16-.1Zm2.35,0a.18.18,0,0,1,.09.1.15.15,0,0,1,0,.18.16.16,0,0,1-.17.11.21.21,0,0,1-.09-.39A.17.17,0,0,1,367.27,796.35Z" transform="translate(-353.55 -774.77)"/></svg>