<svg id="Layer_1" data-name="Layer 1" xmlns="http://www.w3.org/2000/svg" viewBox="0 0 400 400"><defs><style>.cls-1,.cls-2,.cls-3{fill:#fff;}.cls-2,.cls-3{stroke:#000;stroke-miterlimit:10;}.cls-2{stroke-width:3px;}.cls-3{stroke-width:0.1px;}.cls-4{fill-opacity:0.2;}</style></defs><rect class="cls-1" width="400" height="400"/><path d="M572.72,398.31H457.48v110H572.72Z" transform="translate(-311.92 -311.68)"/><path d="M417.33,340.93c-6.86,6.32-10.11,16.28-7.59,23.94.91,3.07,4.7,9.76,8.13,14.55,3.61,5,6.5,10,6.5,11.3s-6.14,13.41-13.54,27-13.54,25.7-13.54,27.19c0,1.34,1.26,5.17,2.89,8.23,2.71,5.56,2.52,6.33-2.53,16.66-4.87,10-5.23,11.5-2.88,15.71,5.05,10,4,13.24-18.24,51.71-16.79,29.11-19.5,37-18.42,51.7,1.93,26.34,14.56,47.25,18.06,52.67,24.23,37.61,65.08,52.83,83.42,56.25,8.81,1.62,17.57,1.51,33.31,6.16,7,2.08,11.82,4,19.56,3.9,5.3-.08,10.32-1.56,20.35-4.49,8.88-2.61,15-4.41,23-8.13a127.64,127.64,0,0,0,18-10.37c15-10.24,24.44-20.56,32.25-28.6,26.48-27.26,57.27-52,59.55-68.18a43.88,43.88,0,0,0,.06-10.62c-.59-3.89-2.14-7.64-5.29-14.66-3.43-7.47-11.2-22-17.34-32.17-17.87-30.07-18.59-32.18-14.26-44.44,1.81-5.55,1.47-7.27-3.25-16.65-5-10.54-5-10.73-2-17.62,3.6-8.05,4-6.71-14.81-41.18-10.11-18.57-10.83-20.3-8.3-23.94,12.27-17.23,13.9-21,13-30.06-.37-4.79-1.81-10.13-3.25-11.5-11.56-11.87-24.74-12.46-35.93-1.14-11.2,11.1-11.2,11.1-29.25,5-22.77-7.66-45-8-65.18-.77-7.59,2.68-15.52,5-17.51,5s-7.59-3.83-12.64-8.62c-8.13-7.65-10.11-8.61-18-8.61C424.91,336.14,421.66,337.29,417.33,340.93ZM521,411.6c4.14,4.59,10.11,13.79,13.35,20.3,5.42,11.87,5.6,12.64,5.6,39.26,0,36.19,0,36.19-25.28,37-20.4.77-28.34-1.34-30-8.24-.54-2.29-.73-17-.36-32.71l.55-28.53,7-12.46c7.25-12.67,16.06-23,19.68-23C512.66,403.2,516.81,407,521,411.6Zm-39.91.38c3.61,3.64,3.61,4.59,0,10-1.81,2.87-4.51,4.21-8.66,4.21-6.14,0-8.31-2.49-8.31-9.58S475.83,406.42,481.06,412Zm75.29.57c3.79,3.07,4,4.22,2,8.63-2.71,6.69-11.92,7.46-16.07,1.55-3.07-4-2.89-7.08.54-10.72,3.79-4.05,8.47-3.86,13.54.54ZM543.71,560c2.89,3.63,3.43,7.66,3.43,23,0,20.11-1.26,23.17-9.21,23.17-11.55,0-23.83,9.58-31,23.94-4.15,8.43-5.23,25.09-2.35,37.73l1.47,7.27h-9.93c-8.67,0-10.47-.78-13.72-5-3.61-4.79-3.79-7.46-3.79-53.81,0-51.33,1.08-58.41,8.48-60.52,1.81-.57,14.45-.95,28.17-.78C539.2,555.42,540.46,555.62,543.71,560Z" transform="translate(-311.92 -311.68)"/><path d="M498.94,451.05c-12.1,5.17,2.53,25.09,16.25,22.21,11.92-2.49,18.41-19.53,8.49-22.4C517.17,448.94,503.63,449.15,498.94,451.05Z" transform="translate(-311.92 -311.68)"/><path d="M487.57,567.87c0,2.49,1.26,3.83,3.6,3.83s3.61-1.34,3.61-3.83-1.26-3.83-3.61-3.83S487.57,565.38,487.57,567.87Z" transform="translate(-311.92 -311.68)"/><path d="M561.18,538.12H440.57v143H561.18Z" transform="translate(-311.92 -311.68)"/><path class="cls-1" d="M595.49,510.27H421.16c-5.33,0-9.65,4.58-9.65,10.23v94.73c0,5.65,4.32,10.23,9.65,10.23H595.49c5.33,0,9.65-4.58,9.65-10.23V520.5C605.14,514.85,600.82,510.27,595.49,510.27Z" transform="translate(-311.92 -311.68)"/><path d="M487.57,567.87c0,2.49,1.26,3.83,3.6,3.83s3.61-1.34,3.61-3.83-1.26-3.83-3.61-3.83S487.57,565.38,487.57,567.87Z" transform="translate(-311.92 -311.68)"/><path class="cls-2" d="M503.12,317.31a61.52,61.52,0,0,0-23.26,9.52c-7.38,5.22-12,11.9-13.16,18.83-.29,1.89-.23,6.82.11,7.15.19.16.71.1,2.32-.27a87.73,87.73,0,0,1,14.19-1.28c7,.19,14.31,1,29.31,3.34,8.79,1.36,16.81,2.48,21.55,3,2.53.26,2.85.23,9.29-.38,6-.57,6.81-.69,8.29-1.21,3.82-1.32,5.07-3.89,5-10.33a23,23,0,0,0-3.31-11.87c-5.36-9-17.3-15.46-31.65-17.08-1.6-.17-4.22-.34-5.84-.39A96.75,96.75,0,0,0,503.12,317.31Zm8.3,2.27a5.21,5.21,0,0,1,1.85.7c.71.47.88.73.93,1.37.12,1.48-1.57,2.5-4.44,2.75-2.08.17-3.6-.21-4.38-1s-.7-.92-.27-1.78c.71-1.44,3.63-2.35,6.34-2Z" transform="translate(-311.92 -311.68)"/><path class="cls-2" d="M471.27,352.73c-3.72.7-5.56,1.36-11.2,4-3.1,1.46-5.66,2.67-5.7,2.74s8.18,3.6,14.66,6.25c2.77,1.12,16.42,5.23,21.64,6.5,9.32,2.28,15.83,3,22.11,2.49,10.13-.86,16.87-5.28,21.27-13.94a15.8,15.8,0,0,0,1.1-2.4c-.06-.05-2-.3-4.37-.58-5.17-.58-9.12-1.13-18.88-2.62-15.56-2.41-20.7-3-27.61-3.26A89.82,89.82,0,0,0,471.27,352.73Z" transform="translate(-311.92 -311.68)"/><path class="cls-1" d="M518.38,459.51c2.19,14.07-4.78,30.41-10,30.46s-11.36-16.5-10.72-30.46c.27-5.85,1.83-10.93,4.94-21.08,3.64-11.91,5.2-12.1,5.61-12.06,1.54.12,2.05,4.56,3.62,11.44C515,451.77,517.33,452.78,518.38,459.51Z" transform="translate(-311.92 -311.68)"/><path class="cls-1" d="M508.32,426.72s-9.85.1-10.75,7.79.63,8.47-3.5,14.8-14.68,18.79-10.62,30.26c.19-1.38.39-2.77.59-4.16q.94-6.56,2-12.89a13.13,13.13,0,0,0-5.14,4.32c-4.12,5.94-1.81,13.3-1.55,14.12,0,0,1,4,2,4.59s1.3,6.53.36,5.67c0,0,.88,10.54,10.9,4.87s13.67-6.57,15.69-5.71V426.72Z" transform="translate(-311.92 -311.68)"/><path class="cls-1" d="M508.33,426.72s9.85.1,10.76,7.79-.64,8.46,3.49,14.8,14.69,18.78,10.62,30.26c-.19-1.38-.39-2.78-.59-4.17q-.93-6.54-2-12.89a13,13,0,0,1,5.14,4.33c4.12,5.93,1.82,13.29,1.55,14.12,0,0-1,3.94-2,4.59s-1.3,6.52-.36,5.67c0,0-.89,10.54-10.91,4.87s-13.67-6.57-15.69-5.72V426.72Z" transform="translate(-311.92 -311.68)"/><path d="M508.22,484.1s-7.81,1.65-11.58-9.4c0,0,6.25,1.15,6.43-4.44s-5.72-.78-5.72-.78-4.56,2.12-5.14-2.49,1.72-10.47,16.08-10.18Z" transform="translate(-311.92 -311.68)"/><path d="M508.22,484.1s7.8,1.65,11.57-9.4c0,0-6.25,1.15-6.42-4.44s5.72-.78,5.72-.78,4.56,2.12,5.14-2.49-1.72-10.47-16.08-10.18Z" transform="translate(-311.92 -311.68)"/><path class="cls-1" d="M508.18,426.37s-9.85.09-10.76,7.79.63,8.46-3.49,14.79-14.69,18.8-10.62,30.27c.19-1.39.39-2.78.59-4.17q.94-6.54,2-12.89a13.08,13.08,0,0,0-5.14,4.32c-4.12,5.95-1.82,13.31-1.55,14.12,0,0,1,3.95,2,4.6s1.29,6.53.35,5.66c0,0,.88,10.55,10.91,4.88s13.67-6.58,15.69-5.71V426.37Z" transform="translate(-311.92 -311.68)"/><path class="cls-1" d="M508.19,426.37s9.85.09,10.75,7.79-.63,8.45,3.5,14.79,14.68,18.79,10.62,30.27c-.2-1.39-.39-2.78-.59-4.18q-.93-6.54-2-12.89a13.24,13.24,0,0,1,5.14,4.33c4.12,5.94,1.82,13.3,1.55,14.12,0,0-1,3.95-2,4.59s-1.3,6.53-.35,5.67c0,0-.89,10.55-10.91,4.88s-13.67-6.58-15.69-5.72V426.37Z" transform="translate(-311.92 -311.68)"/><path d="M508.07,483.74s-7.8,1.65-11.58-9.39c0,0,6.26,1.15,6.44-4.45s-5.72-.78-5.72-.78-4.56,2.13-5.14-2.48,1.72-10.47,16.08-10.19Z" transform="translate(-311.92 -311.68)"/><path d="M508.08,483.74s7.79,1.65,11.57-9.39c0,0-6.25,1.15-6.43-4.45s5.72-.78,5.72-.78,4.56,2.13,5.14-2.48-1.72-10.47-16.08-10.19Z" transform="translate(-311.92 -311.68)"/><path class="cls-1" d="M469.25,425.29s1.47-5.37,7.14-1.35c0,0,5.86,3.68,10.05,2.48C486.46,426.44,478.61,438.11,469.25,425.29Z" transform="translate(-311.92 -311.68)"/><path class="cls-1" d="M547.58,426.07s-1.47-5.37-7.14-1.35c0,0-5.86,3.67-10.05,2.48C530.37,427.22,538.22,438.89,547.58,426.07Z" transform="translate(-311.92 -311.68)"/><path class="cls-3" d="M465.41,409.61c-5.75.23-12.51,1-15.08,1.74a5.49,5.49,0,0,0-1.94,1.22,5.9,5.9,0,0,0-1.34,1.95,26.84,26.84,0,0,0-.13,7.05,11.27,11.27,0,0,0,1.14,2.21,8.28,8.28,0,0,1,1.29,3.92c2,12.55,2.89,15.1,6.41,17.66s7.61,3.75,14.85,4.31c9.73.81,19.19-1.27,23.67-5.1,3.54-3,6.88-9.24,8.86-16.42a11.25,11.25,0,0,1,1.24-3.14c.89-.94,3.52-1.29,5.61-.75,1.49.35,2,1.06,2.7,4,2.37,9.48,6.36,16.05,11.4,18.77s12.83,4.14,20.59,3.76c7.24-.35,11.37-1.42,15-3.87s4.56-5,6.85-17.46a8.2,8.2,0,0,1,1.4-3.88c1.24-1.84,1.42-2.46,1.48-5.62,0-3.37-.2-4.32-1.48-5.56s-1.85-1.4-5.77-2.13c-7.62-1.45-19.13-1.95-29-1.31-8.08.53-10.33,1-15,3.07-1.76.8-4.26,1.82-5.59,2.26-4.45,1.54-6.79,1.12-14.38-2.56-4.59-2.23-6.95-2.78-14.66-3.47A164.91,164.91,0,0,0,465.41,409.61Zm15,5.07c8.91.8,15.31,2.61,17.25,4.93,2.23,2.56.5,11.33-3.44,17.66-3.17,5.15-9.06,8.13-17,8.58-7.65.46-14.86-1.28-18.24-4.37-5.37-4.87-6.69-18.94-2.18-23.91,1.92-2.13,5.4-3.26,10.7-3.47,2.16,0,9.18.23,12.89.58ZM553.22,416c3.87.85,6.12,2.4,7.26,5.12,2.81,6.66.68,18-4.17,22-3.5,2.89-10.68,4.34-18.17,3.67A26.13,26.13,0,0,1,528.07,444a13.2,13.2,0,0,1-4.3-3.15c-4.15-4.33-7.21-13.51-6.33-19,.38-2.28,2.75-3.86,7.53-4.95,7.66-1.75,22-2.21,28.22-.89ZM451.79,417.4c.24.08.07.25-.51.48-1.9.8-1.9.8-1.89-.42v-1.08l1,.45c.55.25,1.17.49,1.36.57Zm114.91,1.83c0,1.21,0,1.21-1.89.38l-.86-.37,1.33-.54c.74-.29,1.34-.55,1.39-.55a6.5,6.5,0,0,1,0,1.08Z" transform="translate(-311.92 -311.68)"/><path class="cls-1" d="M595.51,510.55h-175c-5.35,0-9.68,4.67-9.68,10.43v96.53c0,5.76,4.33,10.43,9.68,10.43h175c5.34,0,9.68-4.67,9.68-10.43V521C605.19,515.22,600.85,510.55,595.51,510.55Z" transform="translate(-311.92 -311.68)"/><path class="cls-4" d="M503.58,523.63a17.25,17.25,0,0,0-4.25,1.17,15.6,15.6,0,0,0-8.95,11.42,6.54,6.54,0,0,1-.54,1.77,1.84,1.84,0,0,1-.75.14,10.88,10.88,0,0,0-4.07,1.5,11.12,11.12,0,0,0-5,9.51,11,11,0,0,0,8,10.79c.78.23,2.31.31,9.35.38l8.42.11,0,.9c.05.87,0,.92-.63,1.39a6.16,6.16,0,0,0-1.16,1.23l-.46.7-14.49,0H474.58l0,4.55-.05,4.56-4.44.09c-3.42.07-4.5.14-4.71.34s-.29,1.86-.29,20c0,18.86,0,19.72.31,20s1.31.31,11.28.31c6,0,11-.07,11.14-.15.56-.39.58-.77.58-20.11,0-19.17,0-19.2-.36-19.69l-.34-.47h-4.37a43.31,43.31,0,0,1-4.59-.14c-.16-.13-.21-.74-.18-2.49l.06-2.33,12.35-.06,12.36,0,1.21,1.28,1.21,1.28v2.11l-4.51.06c-4.05,0-4.52.09-4.8.37s-.3,1.36-.3,20,0,19.67.3,20,1,.33,11.06.38c7.76,0,10.87,0,11.21-.16a1.17,1.17,0,0,0,.65-.87c.13-.43.17-6.73.13-19.61-.05-18.31-.06-19-.37-19.36s-.51-.38-4.76-.42l-4.44,0-.05-1.17c0-1.18,0-1.18.56-1.61a5.67,5.67,0,0,0,1.14-1.23l.52-.77h12.46c10.42,0,12.48,0,12.65.25a6.69,6.69,0,0,1,.15,2.47l0,2.24-4.44.09c-4.08.09-4.49.13-4.81.43l-.36.35v19.52c0,19,0,19.54.33,20l.32.43h22l.32-.43c.31-.42.33-1,.33-20,0-19.45,0-19.52-.36-20l-.34-.49-4.46,0-4.45,0-.09-4.6-.08-4.6H512.36l-.87-1a5.11,5.11,0,0,0-1.19-1.14c-.27-.09-.34-.27-.34-1a2.1,2.1,0,0,1,.21-1.07c.15-.16,2.12-.21,7.79-.21,8.65,0,9-.06,11.61-1.48a13.2,13.2,0,0,0,5.72-7.11c1.91-6.1-.54-12.65-5.77-15.48a11.29,11.29,0,0,0-7.89-1.29,4,4,0,0,1-1.84.13,12.51,12.51,0,0,1-.71-1.6,15.55,15.55,0,0,0-10.29-9.44A18.14,18.14,0,0,0,503.58,523.63Zm-18.73,54.06c.22.32.28.93.28,2.9a16.51,16.51,0,0,1-.17,2.85c-.18.33-.45.34-8.31.34-6.1,0-8.18,0-8.33-.21a9.62,9.62,0,0,1-.21-3.07c0-2.51,0-2.85.31-3a72.89,72.89,0,0,1,8.23-.2h8Zm31.3-.11c.22.23.28.77.28,3a9.12,9.12,0,0,1-.21,3c-.29.3-16.31.3-16.6,0a9.12,9.12,0,0,1-.21-3c0-2.26.06-2.8.28-3s1.2-.29,8.23-.29S515.91,577.32,516.15,577.58Zm31.3,0c.22.23.28.77.28,3a9.12,9.12,0,0,1-.21,3c-.15.16-2.23.21-8.33.21-7.86,0-8.14,0-8.31-.34a16.51,16.51,0,0,1-.17-2.85c0-2,.06-2.58.28-2.9l.25-.4h8C546.25,577.29,547.22,577.32,547.45,577.58ZM484.8,587.77c.33.34.34.54.29,3.07,0,2.17-.1,2.74-.31,2.87s-3.5.18-8.19.18c-7,0-8,0-8.2-.29s-.28-.76-.28-3,.06-2.72.28-3,1.2-.29,8.16-.29C484.31,587.39,484.44,587.39,484.8,587.77Zm31.25-.09c.36.25.38.4.38,3,0,2.2-.06,2.73-.28,3s-1.2.29-8.18.29c-7.14,0-8,0-8.25-.31s-.31-.59-.31-3c0-2.54,0-2.69.38-2.94s1.39-.29,8.13-.29S515.71,587.43,516.05,587.68Zm31.3,0c.36.25.38.38.38,3a9,9,0,0,1-.21,3c-.15.16-2.21.22-8.23.22h-8l-.25-.4c-.22-.32-.28-.94-.28-2.89,0-2.25,0-2.52.34-2.85s.57-.36,8.14-.36C546,587.39,547,587.43,547.35,587.68Zm-69.83,13.86a3.7,3.7,0,0,1,1.06.81c.46.54.51.69.51,1.82s0,1.29-.65,1.93-.68.69-1.82.69-1.21,0-1.77-.61a2.75,2.75,0,0,1-.44-3.59,3.24,3.24,0,0,1,2.18-1.3A2.88,2.88,0,0,1,477.52,601.54Zm31.52.09a2.89,2.89,0,0,1,.12,5,2.6,2.6,0,0,1-1.53.23,2,2,0,0,1-1.51-.68,2.79,2.79,0,0,1-.36-3.59,3,3,0,0,1,2.16-1.28A3.52,3.52,0,0,1,509,601.63Zm31.37,0a2.53,2.53,0,0,1,1.16,1.23,2.45,2.45,0,0,1,0,2.47,2.29,2.29,0,0,1-2.29,1.5,2.78,2.78,0,0,1-1.2-5.23A2,2,0,0,1,540.41,601.68Z" transform="translate(-311.92 -311.68)"/></svg>